<svg width="65" height="66" viewBox="0 0 65 66" fill="none" xmlns="http://www.w3.org/2000/svg">
<g clip-path="url(#clip0_1_3153)">
<path d="M19.5 37.3333C17.0444 37.3333 14.9861 38.1639 13.325 39.825C11.6639 41.4861 10.8333 43.5444 10.8333 46C10.8333 48.4556 11.6639 50.5139 13.325 52.175C14.9861 53.8361 17.0444 54.6667 19.5 54.6667C21.9556 54.6667 24.0139 53.8361 25.675 52.175C27.3361 50.5139 28.1667 48.4556 28.1667 46C28.1667 43.5444 27.3361 41.4861 25.675 39.825C24.0139 38.1639 21.9556 37.3333 19.5 37.3333ZM19.5 52.5C17.7667 52.5 16.25 51.85 14.95 50.55C13.65 49.25 13 47.7333 13 46C13 44.2667 13.65 42.75 14.95 41.45C16.25 40.15 17.7667 39.5 19.5 39.5C21.2333 39.5 22.75 40.15 24.05 41.45C25.35 42.75 26 44.2667 26 46C26 47.7333 25.35 49.25 24.05 50.55C22.75 51.85 21.2333 52.5 19.5 52.5ZM37.9167 41.6667H32.9333C32.6444 40.9444 32.3556 40.2222 32.0667 39.5L35.5333 36.0333C35.8222 35.8889 35.9667 35.6361 35.9667 35.275C35.9667 34.9139 35.8222 34.6611 35.5333 34.5167L30.9833 29.9667C30.8389 29.6778 30.5861 29.5333 30.225 29.5333C29.8639 29.5333 29.6111 29.6778 29.4667 29.9667L26 33.4333C25.2778 33.1444 24.5556 32.8556 23.8333 32.5667V27.5833C23.8333 27.2944 23.725 27.0417 23.5083 26.825C23.2917 26.6083 23.0389 26.5 22.75 26.5H16.25C15.9611 26.5 15.7083 26.6083 15.4917 26.825C15.275 27.0417 15.1667 27.2944 15.1667 27.5833V32.5667C14.4444 32.8556 13.7222 33.1444 13 33.4333L9.53333 29.9667C9.38889 29.6778 9.13611 29.5333 8.775 29.5333C8.41389 29.5333 8.16111 29.6778 8.01667 29.9667L3.46667 34.5167C3.17778 34.6611 3.03333 34.9139 3.03333 35.275C3.03333 35.6361 3.17778 35.8889 3.46667 36.0333L6.93333 39.5C6.64444 40.2222 6.35556 40.9444 6.06667 41.6667H1.08333C0.794444 41.6667 0.541667 41.775 0.325 41.9917C0.108333 42.2083 0 42.4611 0 42.75V49.25C0 49.5389 0.108333 49.7917 0.325 50.0083C0.541667 50.225 0.794444 50.3333 1.08333 50.3333H6.06667C6.35556 51.0556 6.64444 51.7778 6.93333 52.5L3.46667 55.9667C3.17778 56.1111 3.03333 56.3639 3.03333 56.725C3.03333 57.0861 3.17778 57.3389 3.46667 57.4833L8.01667 62.0333C8.16111 62.3222 8.41389 62.4667 8.775 62.4667C9.13611 62.4667 9.38889 62.3222 9.53333 62.0333L13 58.5667C13.7222 58.8556 14.4444 59.1444 15.1667 59.4333V64.4167C15.1667 64.7056 15.275 64.9583 15.4917 65.175C15.7083 65.3917 15.9611 65.5 16.25 65.5H22.75C23.0389 65.5 23.2917 65.3917 23.5083 65.175C23.725 64.9583 23.8333 64.7056 23.8333 64.4167V59.4333C24.5556 59.1444 25.2778 58.8556 26 58.5667L29.4667 62.0333C29.6111 62.3222 29.8639 62.4667 30.225 62.4667C30.5861 62.4667 30.8389 62.3222 30.9833 62.0333L35.5333 57.4833C35.8222 57.3389 35.9667 57.0861 35.9667 56.725C35.9667 56.3639 35.8222 56.1111 35.5333 55.9667L32.0667 52.5C32.3556 51.7778 32.6444 51.0556 32.9333 50.3333H37.9167C38.2056 50.3333 38.4583 50.225 38.675 50.0083C38.8917 49.7917 39 49.5389 39 49.25V42.75C39 42.4611 38.8917 42.2083 38.675 41.9917C38.4583 41.775 38.2056 41.6667 37.9167 41.6667ZM36.8333 48.1667H32.0667C31.4889 48.1667 31.1278 48.4556 30.9833 49.0333C30.6944 50.0444 30.2611 51.0556 29.6833 52.0667C29.3944 52.5 29.4667 52.9333 29.9 53.3667L33.3667 56.6167L30.3333 59.8667L26.8667 56.4C26.4333 55.9667 26 55.8944 25.5667 56.1833C24.5556 56.7611 23.5444 57.1944 22.5333 57.4833C21.9556 57.6278 21.6667 57.9889 21.6667 58.5667V63.3333H17.3333V58.5667C17.3333 57.9889 17.0444 57.6278 16.4667 57.4833C15.4556 57.1944 14.4444 56.7611 13.4333 56.1833C13 55.8944 12.5667 55.9667 12.1333 56.4L8.88333 59.8667L5.63333 56.6167L9.1 53.3667C9.53333 52.9333 9.60556 52.5 9.31667 52.0667C8.73889 51.0556 8.30556 50.0444 8.01667 49.0333C7.87222 48.4556 7.51111 48.1667 6.93333 48.1667H2.16667V43.8333H6.93333C7.51111 43.8333 7.87222 43.5444 8.01667 42.9667C8.30556 41.9556 8.73889 40.9444 9.31667 39.9333C9.60556 39.5 9.53333 39.0667 9.1 38.6333L5.63333 35.1667L8.88333 32.1333L12.1333 35.6C12.5667 36.0333 13 36.1056 13.4333 35.8167C14.4444 35.2389 15.4556 34.8056 16.4667 34.5167C17.0444 34.3722 17.3333 34.0111 17.3333 33.4333V28.6667H21.6667V33.4333C21.6667 34.0111 21.9556 34.3722 22.5333 34.5167C23.5444 34.8056 24.5556 35.2389 25.5667 35.8167C26 36.1056 26.4333 36.0333 26.8667 35.6L30.3333 32.1333L33.3667 35.3833L29.9 38.6333C29.4667 39.0667 29.3944 39.5 29.6833 39.9333C30.2611 40.9444 30.6944 41.9556 30.9833 42.9667C31.1278 43.5444 31.4889 43.8333 32.0667 43.8333H36.8333V48.1667ZM50.9167 18.9167H47.45C47.3056 14.8722 46.5111 11.3333 45.0667 8.3C43.0444 4.25555 40.3 2.01667 36.8333 1.58333C36.8333 1.29444 36.725 1.04166 36.5083 0.824997C36.2917 0.60833 36.0389 0.5 35.75 0.5H29.25C28.9611 0.5 28.7083 0.60833 28.4917 0.824997C28.275 1.04166 28.1667 1.29444 28.1667 1.58333C24.7 2.01667 21.9556 4.25555 19.9333 8.3C18.4889 11.3333 17.6944 14.8722 17.55 18.9167H14.0833C13.7944 18.9167 13.5417 19.025 13.325 19.2417C13.1083 19.4583 13 19.7111 13 20V24.3333C13 24.6222 13.1083 24.875 13.325 25.0917C13.5417 25.3083 13.7944 25.4167 14.0833 25.4167H50.9167C51.2056 25.4167 51.4583 25.3083 51.675 25.0917C51.8917 24.875 52 24.6222 52 24.3333V20C52 19.7111 51.8917 19.4583 51.675 19.2417C51.4583 19.025 51.2056 18.9167 50.9167 18.9167ZM49.8333 23.25H15.1667V21.0833H23.8333V18.9167H19.7167C19.8611 15.45 20.5111 12.3444 21.6667 9.6C23.2556 6.13333 25.4222 4.18333 28.1667 3.75V13.5H30.3333V2.66667H34.6667V13.5H36.8333V3.75C39.5778 4.18333 41.7444 6.13333 43.3333 9.6C44.4889 12.3444 45.1389 15.45 45.2833 18.9167H26V21.0833H49.8333V23.25ZM59.5833 34.0833H57.6333L58.9333 32.7833C59.2222 32.4944 59.3667 32.2056 59.3667 31.9167C59.3667 31.6278 59.2222 31.4111 58.9333 31.2667L55.9 28.2333C55.7556 27.9444 55.5389 27.8 55.25 27.8C54.9611 27.8 54.6722 27.9444 54.3833 28.2333L53.0833 29.5333V27.5833C53.0833 27.2944 52.975 27.0417 52.7583 26.825C52.5417 26.6083 52.2889 26.5 52 26.5H47.6667C47.3778 26.5 47.125 26.6083 46.9083 26.825C46.6917 27.0417 46.5833 27.2944 46.5833 27.5833V29.5333L45.2833 28.2333C44.9944 27.9444 44.7056 27.8 44.4167 27.8C44.1278 27.8 43.9111 27.9444 43.7667 28.2333L40.7333 31.2667C40.4444 31.4111 40.3 31.6278 40.3 31.9167C40.3 32.2056 40.4444 32.4944 40.7333 32.7833L42.0333 34.0833H40.0833C39.7944 34.0833 39.5417 34.1917 39.325 34.4083C39.1083 34.625 39 34.8778 39 35.1667V39.5C39 39.7889 39.1083 40.0417 39.325 40.2583C39.5417 40.475 39.7944 40.5833 40.0833 40.5833H42.0333L40.7333 41.8833C40.4444 42.1722 40.3 42.4611 40.3 42.75C40.3 43.0389 40.4444 43.2556 40.7333 43.4L43.7667 46.4333C43.9111 46.7222 44.1278 46.8667 44.4167 46.8667C44.7056 46.8667 44.9944 46.7222 45.2833 46.4333L46.5833 45.1333V47.0833C46.5833 47.3722 46.6917 47.625 46.9083 47.8417C47.125 48.0583 47.3778 48.1667 47.6667 48.1667H52C52.2889 48.1667 52.5417 48.0583 52.7583 47.8417C52.975 47.625 53.0833 47.3722 53.0833 47.0833V45.1333L54.3833 46.4333C54.6722 46.7222 54.9611 46.8667 55.25 46.8667C55.5389 46.8667 55.7556 46.7222 55.9 46.4333L58.9333 43.4C59.2222 43.2556 59.3667 43.0389 59.3667 42.75C59.3667 42.4611 59.2222 42.1722 58.9333 41.8833L57.6333 40.5833H59.5833C59.8722 40.5833 60.125 40.475 60.3417 40.2583C60.5583 40.0417 60.6667 39.7889 60.6667 39.5V35.1667C60.6667 34.8778 60.5583 34.625 60.3417 34.4083C60.125 34.1917 59.8722 34.0833 59.5833 34.0833ZM58.5 38.4167H55.9C55.4667 38.4167 55.1778 38.6333 55.0333 39.0667L54.8167 39.7167C54.5278 40.15 54.6 40.5111 55.0333 40.8L56.7667 42.75L55.25 44.2667L53.3 42.3167C53.0111 42.0278 52.65 42.0278 52.2167 42.3167L51.5667 42.5333C51.1333 42.6778 50.9167 42.9667 50.9167 43.4V46H48.75V43.4C48.75 42.9667 48.5333 42.6778 48.1 42.5333L47.45 42.3167C47.0167 42.0278 46.6556 42.1 46.3667 42.5333L44.4167 44.2667L42.9 42.75L44.85 40.8C45.1389 40.5111 45.1389 40.15 44.85 39.7167V39.0667C44.5611 38.6333 44.2 38.4167 43.7667 38.4167H41.1667V36.25H43.7667C44.2 36.25 44.4889 36.0333 44.6333 35.6L44.85 34.95C45.1389 34.5167 45.0667 34.1556 44.6333 33.8667L42.9 31.9167L44.4167 30.4L46.3667 32.1333C46.6556 32.5667 47.0167 32.7111 47.45 32.5667L48.1 32.35C48.5333 32.0611 48.75 31.7 48.75 31.2667V28.6667H50.9167V31.2667C50.9167 31.7 51.1333 31.9889 51.5667 32.1333L52.2167 32.35C52.65 32.6389 53.0111 32.5667 53.3 32.1333L55.25 30.4L56.7667 31.9167L55.0333 33.8667C54.6 34.1556 54.5278 34.5167 54.8167 34.95L55.0333 35.6C55.1778 36.0333 55.4667 36.25 55.9 36.25H58.5V38.4167ZM49.8333 33C48.6778 33 47.6667 33.4333 46.8 34.3C45.9333 35.1667 45.5 36.1778 45.5 37.3333C45.5 38.4889 45.9333 39.5 46.8 40.3667C47.6667 41.2333 48.6778 41.6667 49.8333 41.6667C50.9889 41.6667 52 41.2333 52.8667 40.3667C53.7333 39.5 54.1667 38.4889 54.1667 37.3333C54.1667 36.1778 53.7333 35.1667 52.8667 34.3C52 33.4333 50.9889 33 49.8333 33ZM49.8333 39.5C49.2556 39.5 48.75 39.2833 48.3167 38.85C47.8833 38.4167 47.6667 37.9111 47.6667 37.3333C47.6667 36.7556 47.8833 36.25 48.3167 35.8167C48.75 35.3833 49.2556 35.1667 49.8333 35.1667C50.4111 35.1667 50.9167 35.3833 51.35 35.8167C51.7833 36.25 52 36.7556 52 37.3333C52 37.9111 51.7833 38.4167 51.35 38.85C50.9167 39.2833 50.4111 39.5 49.8333 39.5Z" fill="#FFBD59"/>
</g>
<defs>
<clipPath id="clip0_1_3153">
<rect width="65" height="65" fill="white" transform="matrix(1 0 0 -1 0 65.5)"/>
</clipPath>
</defs>
</svg>
