<svg width="60" height="60" viewBox="0 0 60 60" fill="none" xmlns="http://www.w3.org/2000/svg">
<path d="M19.3282 0L17.1526 2.82535L19.3282 5.65044L21.5076 2.8251L19.3282 0ZM45.551 0.944476L42.6955 4.64404L45.551 8.34733L48.4023 4.64404L45.551 0.944476ZM28.8784 3.24505L26.0269 6.94461L28.8782 10.6442L31.7337 6.94461L28.8784 3.24505ZM4.4429 3.66449L2.26733 6.48959L4.4429 9.31494L6.62257 6.48959L4.44316 3.66449H4.4429ZM54.4972 6.75385L52.7575 10.4108L48.9903 12.1012L52.7576 13.8616L54.4972 17.4485L56.2329 13.7916L60 12.1012L56.3047 10.4109L54.4972 6.7541V6.75385ZM16.0008 8.39782L13.8172 12.995L9.08622 15.1168L13.8174 17.3279L16.001 21.8358L18.1804 17.2386L22.9116 15.1167L18.2725 12.995L16.001 8.39757L16.0008 8.39782ZM42.6956 9.54413L39.8401 13.2437L42.6956 16.947L45.5469 13.2437L42.6956 9.54413ZM29.8779 17.3942L27.5104 20.4642L29.8779 23.538L32.2454 20.464L29.8779 17.3942ZM43.0634 21.257L41.2718 25.0343L37.3845 26.7753L41.2718 28.59L43.0634 32.2975L44.8592 28.5202L48.7464 26.7753L44.9349 25.0343L43.0633 21.257H43.0634ZM8.45824 22.1234L6.27883 24.945L8.45824 27.7701L10.6338 24.9448L8.45824 22.1234ZM20.5039 25.4889L18.3283 28.3143L20.5039 31.1393L22.6835 28.3143L20.5041 25.4889H20.5039ZM29.8022 28.4812C28.8202 28.4948 27.9726 29.0201 27.0268 29.7284C21.1354 34.1434 13.676 40.5507 13.5856 44.1305C12.5314 44.2524 11.5938 44.7851 11.5938 45.7239C11.5938 47.1238 13.5625 47.6261 15.0011 47.2472C14.9827 47.3355 14.9734 47.4253 14.9732 47.5153C14.9732 49.5145 18.9916 49.6858 19.7403 48.0708C24.1682 49.2211 29.5992 49.4145 34.5614 48.8365C34.8624 50.6956 38.9069 50.7233 39.3845 48.9646C40.6959 49.9001 43.0843 49.9548 44.5314 49.1357C45.8976 49.9778 48.6788 49.5638 48.6788 47.9154C48.6788 47.6713 48.6193 47.4553 48.5108 47.2665C49.2607 46.9506 49.7986 46.3972 49.7986 45.6031C49.7986 43.8209 47.0926 43.2746 45.3553 43.9126C44.7748 40.0361 37.7152 33.373 32.446 29.5262C31.4103 28.7702 30.5663 28.4702 29.8025 28.4809L29.8022 28.4812ZM7.34665 42.4594C5.97092 42.4623 4.59519 43.0837 4.59519 44.3132C4.59519 46.772 10.0981 46.7257 10.0981 44.3132C10.0981 43.0724 8.722 42.4566 7.34665 42.4593V42.4594ZM57.3127 44.08C56.0909 44.0852 54.8691 44.6292 54.8691 45.7004C54.8691 47.9052 59.7562 47.885 59.7562 45.7004C59.7562 44.6081 58.5344 44.0748 57.3127 44.08ZM2.44342 46.0349C1.22165 46.0371 0 46.5863 0 47.6785C0 49.8634 4.88698 49.8216 4.88698 47.6785C4.88698 46.5764 3.6652 46.0324 2.44342 46.0349ZM55.1332 48.957C53.7575 48.9598 52.3818 49.5812 52.3818 50.8107C52.3818 53.2698 57.8806 53.2232 57.8806 50.8107C57.8806 49.5697 56.5087 48.9541 55.133 48.9568L55.1332 48.957ZM20.088 49.777C19.3201 49.7786 18.553 49.9964 18.0885 50.4298C16.6508 49.8225 14.2652 50.2948 14.2652 51.8211C14.2652 53.6001 17.5052 53.8991 18.7085 52.7926C20.1462 53.3895 22.5318 52.9182 22.5318 51.4209C22.5318 50.3187 21.31 49.7745 20.0882 49.777H20.088ZM31.2499 49.9752C30.0282 49.9804 28.8064 50.5242 28.8064 51.5955C28.8064 53.8 33.6935 53.7804 33.6935 51.5955C33.6935 50.5034 32.4717 49.97 31.2499 49.9752ZM6.67875 51.141C5.45698 51.1435 4.2352 51.6925 4.2352 52.785C4.2352 54.9694 9.1223 54.9276 9.1223 52.785C9.1223 51.6826 7.90053 51.1385 6.67875 51.141ZM44.8791 52.781C43.6574 52.786 42.4356 53.3339 42.4356 54.4053C42.4356 55.6331 43.9518 56.1715 45.295 56.0298C45.2033 56.2228 45.155 56.4382 45.155 56.6748C45.155 59.0149 49.8295 59.2268 50.7539 57.3625C52.0737 57.4661 53.5214 56.9198 53.5214 55.7305C53.5214 53.9006 50.0917 53.6313 48.9783 54.8525C48.4248 54.7394 47.8182 54.7331 47.2549 54.8289C47.299 54.6978 47.3227 54.5578 47.3227 54.4055C47.3227 53.3131 46.101 52.7759 44.8793 52.781H44.8791ZM25.5669 53.2162C24.1659 53.2222 22.7675 53.8492 22.7675 55.0776C22.7675 57.6057 28.3702 57.5829 28.3702 55.0776C28.3702 53.8253 26.9679 53.2103 25.5668 53.2164L25.5669 53.2162ZM38.4405 55.4157C36.8344 55.419 35.2291 56.1444 35.2291 57.5802C35.2291 60.4516 41.6517 60.3969 41.6517 57.5802C41.6517 56.1315 40.0464 55.4125 38.4406 55.4157H38.4405ZM18.8603 56.2514C17.4592 56.2572 16.0568 56.884 16.0568 58.1126C16.0568 60.6405 21.6597 60.6177 21.6597 58.1126C21.6597 56.8601 20.2614 56.2453 18.8603 56.2513V56.2514Z" fill="#FFBD59"/>
</svg>
