<svg width="60" height="60" viewBox="0 0 60 60" fill="none" xmlns="http://www.w3.org/2000/svg">
<path d="M0 30C0 46.5 13.5 60 30 60C46.5 60 60 46.5 60 30C60 13.5 46.5 0 30 0C13.5 0 0 13.5 0 30ZM54 30C54 43.2 43.2 54 30 54C16.8 54 6 43.2 6 30C6 16.8 16.8 6 30 6C43.2 6 54 16.8 54 30ZM31.5 15L30.6 18.9L27.9 9C24.9 9.9 23.1 12.9 23.7 16.2L24.6 20.1L17.7 12.9C15.6 15 15.6 18.9 17.7 21L20.7 24L10.8 21.3C9.9 24.3 11.7 27.6 15 28.5L18.9 29.4L9 32.1C9.9 35.1 12.9 36.9 16.2 36.3L20.1 35.4L12.9 42.6C15.3 44.7 18.9 44.7 21 42.6L23.7 39.9L21 49.8C24 50.7 27.3 48.9 28.2 45.6L29.1 41.7L31.8 51.6C34.8 50.7 36.6 47.7 36 44.4L35.1 40.5L42.3 47.7C44.4 45.3 44.4 41.7 42.3 39.6L39.3 36L49.2 38.7C50.1 35.7 48.3 32.4 45 31.5L41.1 30.6L51 27.9C50.1 24.9 47.1 23.1 43.8 23.7L39.9 24.6L47.1 17.4C44.7 15.3 41.1 15.3 39 17.4L36.3 20.4L39 10.5C35.7 9.9 32.4 11.7 31.5 15ZM34.5 30C34.5 32.4 32.4 34.5 30 34.5C27.6 34.5 25.5 32.4 25.5 30C25.5 27.6 27.6 25.5 30 25.5C32.4 25.5 34.5 27.6 34.5 30Z" fill="#FFBD59"/>
</svg>
