<svg width="66" height="66" viewBox="0 0 66 66" fill="none" xmlns="http://www.w3.org/2000/svg">
<g clip-path="url(#clip0_1_3456)">
<path d="M53.5198 8.95C52.0753 8.66111 50.7031 8.87778 49.4031 9.6C48.1031 10.3222 47.2365 11.4417 46.8031 12.9583C46.3698 14.475 46.5503 15.8833 47.3448 17.1833C48.1392 18.4833 49.2587 19.35 50.7031 19.7833C51.1365 19.9278 51.5698 20 52.0031 20C53.0142 20 53.9531 19.7111 54.8198 19.1333C56.1198 18.4111 56.9865 17.2917 57.4198 15.775C57.8531 14.2583 57.6726 12.85 56.8781 11.55C56.0837 10.25 54.9642 9.38333 53.5198 8.95ZM53.9531 17.4C53.0865 17.9778 52.1476 18.1222 51.1365 17.8333C50.1253 17.5444 49.4031 16.9667 48.9698 16.1C48.5365 15.2333 48.4281 14.3306 48.6448 13.3917C48.8615 12.4528 49.4031 11.7667 50.2698 11.3333C50.8476 10.9 51.4253 10.6833 52.0031 10.6833L53.0865 10.9C53.9531 11.1889 54.6392 11.7667 55.1448 12.6333C55.6503 13.5 55.7948 14.4028 55.5781 15.3417C55.3615 16.2806 54.8198 16.9667 53.9531 17.4ZM64.5698 17.1833L62.6198 15.6667C62.7642 14.6556 62.7642 13.6444 62.6198 12.6333L64.3531 11.1167C64.642 10.8278 64.8587 10.4306 65.0031 9.925C65.1476 9.41945 65.0753 9.02222 64.7865 8.73333L63.2698 5.91667C62.9809 5.48333 62.6198 5.19444 62.1865 5.05C61.7531 4.90556 61.3198 4.90556 60.8865 5.05L58.5031 5.91667C57.7809 5.19444 56.9142 4.68889 55.9031 4.4L55.4698 2.23333C55.3253 1.65556 55.0726 1.22222 54.7115 0.933334C54.3503 0.644447 53.9531 0.5 53.5198 0.5H50.4865C49.9087 0.5 49.4392 0.644447 49.0781 0.933334C48.717 1.22222 48.4642 1.65556 48.3198 2.23333L47.8865 4.4C47.0198 4.83333 46.1531 5.41111 45.2865 6.13333L43.3365 5.26667C42.7587 5.12222 42.2531 5.15833 41.8198 5.375C41.3865 5.59167 41.0253 5.91667 40.7365 6.35L39.2198 8.95C39.0753 9.38333 39.0392 9.81667 39.1115 10.25C39.1837 10.6833 39.3642 11.1167 39.6531 11.55L41.3865 13.0667C41.242 14.0778 41.3142 15.0889 41.6031 16.1L39.8698 17.6167C39.4365 17.9056 39.1837 18.3028 39.1115 18.8083C39.0392 19.3139 39.1476 19.7833 39.4365 20.2167L40.9531 22.8167C41.242 23.25 41.6031 23.5389 42.0365 23.6833C42.4698 23.8278 42.9031 23.8278 43.3365 23.6833L45.5031 22.8167C46.3698 23.5389 47.3087 24.0444 48.3198 24.3333L48.7531 26.5C48.7531 27.0778 48.9698 27.5111 49.4031 27.8C49.8365 28.0889 50.2698 28.2333 50.7031 28.2333H53.7365C54.1698 28.2333 54.6031 28.0889 55.0365 27.8C55.4698 27.5111 55.6865 27.0778 55.6865 26.5L56.1198 24.3333C57.1309 23.9 58.0698 23.3222 58.9365 22.6L60.8865 23.4667C61.3198 23.6111 61.7892 23.575 62.2948 23.3583C62.8003 23.1417 63.1253 22.8889 63.2698 22.6L65.0031 19.7833C65.1476 19.35 65.1837 18.9167 65.1115 18.4833C65.0392 18.05 64.8587 17.6167 64.5698 17.1833ZM63.2698 18.9167L61.7531 21.5167H61.5364L58.9365 20.65C58.6476 20.5056 58.3587 20.5778 58.0698 20.8667C57.2031 21.7333 56.192 22.3111 55.0365 22.6C54.7476 22.7444 54.5309 23.0333 54.3865 23.4667L53.9531 26.2833H53.7365H50.7031H50.4865L50.0531 23.4667C50.0531 23.1778 49.8365 22.9611 49.4031 22.8167C48.2476 22.3833 47.2365 21.8056 46.3698 21.0833C46.0809 20.9389 45.792 20.8667 45.5031 20.8667L42.6865 21.95L41.1698 19.1333C41.0253 19.1333 41.0253 19.0611 41.1698 18.9167L43.1198 17.1833C43.4087 16.8944 43.5531 16.6056 43.5531 16.3167C43.2642 15.1611 43.192 14.0056 43.3365 12.85C43.4809 12.4167 43.4087 12.1278 43.1198 11.9833L40.9531 10.0333C40.9531 10.0333 40.9531 9.96111 40.9531 9.81667L42.4698 7.21667H42.6865L45.2865 8.08333C45.5753 8.22778 45.8642 8.15556 46.1531 7.86666C47.0198 7 48.0309 6.42222 49.1865 6.13333C49.4753 5.98889 49.692 5.7 49.8365 5.26667L50.2698 2.45H50.4865H53.5198L54.1698 5.26667C54.1698 5.55555 54.3865 5.77222 54.8198 5.91667C55.9753 6.35 56.9865 6.92778 57.8531 7.65C58.142 7.93889 58.4309 8.01111 58.7198 7.86666L61.5364 6.78333V7L63.0531 9.6C63.1976 9.6 63.1976 9.67222 63.0531 9.81667L61.1031 11.55C60.8142 11.8389 60.6698 12.1278 60.6698 12.4167C60.9587 13.5722 60.9587 14.7278 60.6698 15.8833C60.6698 16.3167 60.8142 16.6056 61.1031 16.75L63.2698 18.7C63.2698 18.7 63.2698 18.7722 63.2698 18.9167ZM14.0865 34.7333C14.0865 33.8667 13.7615 33.1444 13.1115 32.5667C12.4615 31.9889 11.7031 31.7 10.8365 31.7H10.4031V26.9333C10.4031 26.3556 10.2226 26.0306 9.86145 25.9583C9.50034 25.8861 9.13923 25.9583 8.77812 26.175C8.41701 26.3917 8.30868 26.7167 8.45312 27.15V31.7H5.63645V15.2333C5.63645 15.0889 5.63645 14.9444 5.63645 14.8L3.25312 10.9V5.91667H10.8365V10.9L8.66979 14.8C8.52534 14.9444 8.45312 15.0889 8.45312 15.2333V21.5167C8.30868 21.95 8.41701 22.275 8.77812 22.4917C9.13923 22.7083 9.50034 22.7444 9.86145 22.6C10.2226 22.4556 10.4031 22.1667 10.4031 21.7333V15.45L12.5698 11.55C12.7142 11.4056 12.7865 11.2611 12.7865 11.1167V1.36667C12.7865 1.22222 12.6781 1.04166 12.4615 0.824997C12.2448 0.60833 11.992 0.5 11.7031 0.5H2.38645C2.09756 0.5 1.8809 0.60833 1.73645 0.824997C1.59201 1.04166 1.51979 1.29444 1.51979 1.58333V11.1167C1.51979 11.2611 1.51979 11.4778 1.51979 11.7667L3.90312 15.45V31.7H3.25312C2.09756 31.7 1.26701 32.1694 0.761453 33.1083C0.255897 34.0472 0.183675 35.0583 0.544786 36.1417C0.905897 37.225 1.66423 37.8389 2.81979 37.9833V57.05C2.81979 58.35 3.25312 59.3972 4.11979 60.1917C4.98645 60.9861 5.99756 61.3833 7.15312 61.3833C8.30868 61.3833 9.31979 60.9861 10.1865 60.1917C11.0531 59.3972 11.4865 58.35 11.4865 57.05V37.9833C12.2087 37.8389 12.8226 37.4778 13.3281 36.9C13.8337 36.3222 14.0865 35.6 14.0865 34.7333ZM3.25312 3.96667V2.45H10.8365V3.96667H3.25312ZM7.15312 59.4333C6.4309 59.4333 5.81701 59.1806 5.31145 58.675C4.8059 58.1694 4.55312 57.6278 4.55312 57.05L4.76979 37.9833H9.53645V57.05C9.53645 57.6278 9.28368 58.1694 8.77812 58.675C8.27256 59.1806 7.7309 59.4333 7.15312 59.4333ZM10.8365 36.0333H3.25312C2.81979 36.0333 2.49479 35.8167 2.27812 35.3833C2.06145 34.95 2.06145 34.5167 2.27812 34.0833C2.49479 33.65 2.81979 33.4333 3.25312 33.4333H10.8365C11.4142 33.4333 11.7753 33.65 11.9198 34.0833C12.0642 34.5167 12.0642 34.95 11.9198 35.3833C11.7753 35.8167 11.4142 36.0333 10.8365 36.0333ZM61.1031 54.45V50.3333C61.1031 46.8667 60.3809 43.5806 58.9365 40.475C57.492 37.3694 55.3976 34.7333 52.6531 32.5667C52.3642 32.2778 52.0031 32.1333 51.5698 32.1333C51.1365 32.1333 50.7753 32.2778 50.4865 32.5667C48.4642 31.1222 46.2253 30.0389 43.7698 29.3167C43.9142 28.5944 43.7698 28.1611 43.3365 28.0167C41.7476 27.15 40.1226 26.7167 38.4615 26.7167C36.8003 26.7167 35.1753 27.15 33.5865 28.0167C33.1531 28.1611 33.0087 28.5944 33.1531 29.3167C31.9976 29.6056 30.9142 30.0389 29.9031 30.6167V19.35C33.8031 18.3389 35.8253 15.8833 35.9698 11.9833C35.9698 9.96111 35.392 7.86666 34.2365 5.7C33.0809 3.53333 31.7087 1.87222 30.1198 0.716667C29.2531 0.42778 28.7476 0.716667 28.6031 1.58333V9.38333C28.4587 9.81667 28.1698 10.0333 27.7365 10.0333H23.8365C23.692 10.0333 23.5476 9.96111 23.4031 9.81667C23.2587 9.67222 23.1865 9.52778 23.1865 9.38333V1.36667C23.042 0.644447 22.5365 0.42778 21.6698 0.716667C19.9365 1.72778 18.5281 3.31667 17.4448 5.48333C16.3615 7.65 15.8198 9.81667 15.8198 11.9833C15.8198 15.8833 17.7698 18.3389 21.6698 19.35V35.1667C19.6476 37.1889 18.1309 39.5 17.1198 42.1C16.1087 44.7 15.6031 47.4444 15.6031 50.3333V54.45C14.4476 54.8833 13.7253 55.6417 13.4365 56.725C13.1476 57.8083 13.292 58.8556 13.8698 59.8667C14.4476 60.8778 15.3865 61.3833 16.6865 61.3833C19.2865 61.3833 21.8865 62.0694 24.4865 63.4417C27.0865 64.8139 29.7587 65.5 32.5031 65.5H44.2031C47.092 65.5 49.8365 64.8139 52.4365 63.4417C55.0365 62.0694 57.6365 61.3833 60.2365 61.3833C61.5364 61.3833 62.4753 60.8778 63.0531 59.8667C63.6309 58.8556 63.7753 57.8083 63.4865 56.725C63.1976 55.6417 62.4031 54.8833 61.1031 54.45ZM49.8365 34.3V45.35C49.8365 45.6389 49.9087 45.8917 50.0531 46.1083C50.1976 46.325 50.4142 46.4333 50.7031 46.4333C50.992 46.4333 51.2087 46.325 51.3531 46.1083C51.4976 45.8917 51.5698 45.6389 51.5698 45.35V34.3C54.0253 36.3222 55.9392 38.7056 57.3115 41.45C58.6837 44.1944 59.3698 47.1556 59.3698 50.3333V54.2333H51.7865L51.5698 50.55C51.5698 50.2611 51.4976 50.0083 51.3531 49.7917C51.2087 49.575 50.992 49.4667 50.7031 49.4667C50.4142 49.4667 50.1976 49.575 50.0531 49.7917C49.9087 50.0083 49.8365 50.2611 49.8365 50.55V54.2333H43.7698V31.4833C45.9365 32.0611 47.9587 33 49.8365 34.3ZM41.8198 29.3167V54.2333H34.8865V29.3167C37.1976 28.3056 39.5087 28.3056 41.8198 29.3167ZM33.1531 54.2333H27.0865V34.3C28.9642 33 30.9865 32.0611 33.1531 31.4833V54.2333ZM17.7698 11.9833C17.7698 10.5389 18.0948 9.02222 18.7448 7.43333C19.3948 5.84444 20.2253 4.54445 21.2365 3.53333V9.38333C21.2365 10.1056 21.4892 10.7194 21.9948 11.225C22.5003 11.7306 23.1142 11.9833 23.8365 11.9833H27.7365C28.4587 11.9833 29.0726 11.7306 29.5781 11.225C30.0837 10.7194 30.3365 10.1056 30.3365 9.38333V3.53333C31.492 4.68889 32.3948 6.025 33.0448 7.54167C33.6948 9.05833 34.0198 10.5389 34.0198 11.9833C34.0198 15.1611 32.2865 17.0389 28.8198 17.6167C28.242 17.7611 27.9531 18.05 27.9531 18.4833V31.4833L26.2198 32.5667C25.9309 32.2778 25.6059 32.1694 25.2448 32.2417C24.8837 32.3139 24.5587 32.4222 24.2698 32.5667L23.4031 33.2167L23.6198 18.4833C23.6198 18.05 23.3309 17.7611 22.7531 17.6167C19.4309 16.8944 17.7698 15.0167 17.7698 11.9833ZM25.1365 34.3V54.2333H17.5531V50.3333C17.5531 47.1556 18.2392 44.1944 19.6115 41.45C20.9837 38.7056 22.8253 36.3222 25.1365 34.3ZM61.3198 59C61.0309 59.2889 60.6698 59.4333 60.2365 59.4333C57.3476 59.4333 54.3865 60.2278 51.3531 61.8167C49.1865 62.9722 46.8031 63.55 44.2031 63.55H32.5031C30.0476 63.55 27.6642 62.9722 25.3531 61.8167C22.1753 60.0833 19.2865 59.2889 16.6865 59.4333C15.9642 59.4333 15.4948 59.1806 15.2781 58.675C15.0615 58.1694 15.0976 57.6278 15.3865 57.05C15.6753 56.4722 16.1087 56.1833 16.6865 56.1833H60.0198C60.742 56.1833 61.2837 56.5083 61.6448 57.1583C62.0059 57.8083 61.8976 58.4222 61.3198 59Z" fill="#FFBD59"/>
</g>
<defs>
<clipPath id="clip0_1_3456">
<rect width="65" height="65" fill="white" transform="matrix(1 0 0 -1 0.328125 65.5)"/>
</clipPath>
</defs>
</svg>
