<svg width="66" height="54" viewBox="0 0 66 54" fill="none" xmlns="http://www.w3.org/2000/svg">
<path d="M65.3301 50.8331V49.9664C65.3301 49.6776 65.2217 49.4609 65.0051 49.3164C64.7884 49.172 64.5717 49.0998 64.3551 49.0998C64.1384 49.0998 63.9217 49.172 63.7051 49.3164C63.4884 49.4609 63.3801 49.6776 63.3801 49.9664V51.0498C63.5245 51.1942 63.5245 51.3387 63.3801 51.4831C63.2356 51.6276 63.019 51.6998 62.7301 51.6998H57.3134V34.5831L58.8301 35.2331C59.9856 35.6664 60.9606 36.3887 61.7551 37.3998C62.5495 38.4109 62.9467 39.4942 62.9467 40.6498L63.1634 44.3331C63.1634 44.4776 63.2717 44.6581 63.4884 44.8748C63.7051 45.0914 63.9217 45.1998 64.1384 45.1998C64.3551 45.1998 64.5717 45.0914 64.7884 44.8748C65.0051 44.6581 65.1134 44.4053 65.1134 44.1164L64.8967 40.6498C64.7523 39.0609 64.1745 37.5803 63.1634 36.2081C62.1523 34.8359 60.9245 33.9331 59.4801 33.4998L48.8634 29.8164C48.2856 29.672 47.8523 29.7442 47.5634 30.0331L47.3467 30.2498L45.1801 29.3831V27.4331C45.7579 27.1442 46.3356 26.7109 46.9134 26.1331V25.9164C48.3579 24.472 49.2245 22.8109 49.5134 20.9331L49.7301 20.0664H50.1634C50.7412 20.0664 51.2467 19.8859 51.6801 19.5248C52.1134 19.1637 52.3301 18.622 52.3301 17.8998V15.2998C52.4745 15.0109 52.5467 14.722 52.5467 14.4331V13.3498C52.5467 12.9164 52.4023 12.5553 52.1134 12.2664C51.8245 11.9776 51.5356 11.7609 51.2467 11.6164V11.1831C51.1023 8.72756 50.1995 6.63311 48.5384 4.89978C46.8773 3.16645 44.9634 2.15533 42.7967 1.86645L41.4967 0.566448L39.3301 0.349781L38.2467 0.783112L37.1634 1.86645C34.9967 2.15533 33.119 3.09422 31.5301 4.68311C30.6634 5.54978 30.0134 6.56089 29.5801 7.71645L24.1634 2.73311C23.5856 2.15533 22.9356 1.86645 22.2134 1.86645C21.4912 1.86645 20.8412 2.15533 20.2634 2.73311L14.4134 8.14978V7.49978C14.4134 7.06645 14.269 6.74145 13.9801 6.52478C13.6912 6.30811 13.4023 6.19978 13.1134 6.19978H8.78008C8.34674 6.19978 7.98563 6.30811 7.69674 6.52478C7.40786 6.74145 7.26341 7.06645 7.26341 7.49978V14.8664L1.19674 20.4998C0.618967 21.0776 0.330078 21.7637 0.330078 22.5581C0.330078 23.3526 0.582856 24.0387 1.08841 24.6164C1.59397 25.1942 2.28008 25.4831 3.14674 25.4831C3.86897 25.4831 4.51897 25.1942 5.09675 24.6164L7.26341 22.6664V29.1664C7.26341 29.4553 7.33563 29.7081 7.48008 29.9248C7.62452 30.1414 7.84119 30.2498 8.13008 30.2498C8.41897 30.2498 8.63563 30.1414 8.78008 29.9248C8.92452 29.7081 8.99675 29.4553 8.99675 29.1664V20.9331L22.2134 8.58311L27.4134 13.5664V14.6498C27.5579 14.7942 27.6301 15.0109 27.6301 15.2998V17.8998C27.6301 18.622 27.8467 19.1637 28.2801 19.5248C28.7134 19.8859 29.219 20.0664 29.7967 20.0664H30.2301L30.4467 21.7998C30.5912 22.3776 30.8079 22.9553 31.0967 23.5331L31.5301 24.1831L34.7801 27.6498V29.3831L32.6134 30.2498L32.3967 30.0331C32.2523 29.8887 31.9634 29.7442 31.5301 29.5998L27.4134 30.8998V24.3998C27.4134 23.9664 27.269 23.6053 26.9801 23.3164C26.6912 23.0276 26.3301 22.8831 25.8967 22.8831H18.5301C18.0967 22.8831 17.7356 23.0276 17.4467 23.3164C17.1579 23.6053 17.0134 23.9664 17.0134 24.3998V35.6664L15.0634 40.6498H8.99675V35.0164C8.99675 34.7276 8.92452 34.5109 8.78008 34.3664C8.63563 34.222 8.41897 34.1498 8.13008 34.1498C7.84119 34.1498 7.62452 34.222 7.48008 34.3664C7.33563 34.5109 7.26341 34.7276 7.26341 35.0164V40.6498C7.26341 41.0831 7.44397 41.4803 7.80508 41.8414C8.16619 42.2026 8.63563 42.3831 9.21341 42.3831H15.0634L14.6301 50.8331C14.6301 51.5553 14.8829 52.2053 15.3884 52.7831C15.894 53.3609 16.5079 53.6498 17.2301 53.6498H62.7301C63.4523 53.6498 64.0662 53.3609 64.5717 52.7831C65.0773 52.2053 65.3301 51.5553 65.3301 50.8331ZM50.3801 17.8998C50.3801 18.1887 50.3079 18.3331 50.1634 18.3331H49.7301V16.1664H50.3801V17.8998ZM38.6801 2.94978L38.8967 2.51645L39.3301 2.29978H40.6301L40.8467 2.51645L41.2801 2.94978V6.19978C41.2801 6.48867 41.2079 6.70533 41.0634 6.84978C40.919 6.99422 40.7023 7.06645 40.4134 7.06645H39.5467C39.2579 7.06645 39.0412 6.99422 38.8967 6.84978C38.7523 6.70533 38.6801 6.48867 38.6801 6.19978V2.94978ZM12.6801 7.93311V9.88311L9.21341 13.1331V7.93311H12.6801ZM28.9301 9.66645C28.9301 9.81089 28.9301 9.95533 28.9301 10.0998L28.7134 11.6164L28.2801 11.8331L22.8634 6.63311C22.719 6.48867 22.5023 6.41645 22.2134 6.41645C21.9245 6.41645 21.7079 6.48867 21.5634 6.63311L3.79674 23.3164C3.6523 23.6053 3.43563 23.7137 3.14674 23.6414C2.85786 23.5692 2.60508 23.4609 2.38841 23.3164C2.17174 23.172 2.09952 22.9553 2.17174 22.6664C2.24397 22.3776 2.3523 22.0887 2.49674 21.7998L21.5634 4.03311C21.7079 3.88867 21.9245 3.81645 22.2134 3.81645C22.5023 3.81645 22.719 3.88867 22.8634 4.03311L28.9301 9.66645ZM29.7967 18.3331C29.6523 18.3331 29.5801 18.1887 29.5801 17.8998V16.1664H30.2301V18.3331H29.7967ZM29.3634 13.9998V13.5664H29.5801C29.869 13.5664 30.1217 13.4581 30.3384 13.2414C30.5551 13.0248 30.6634 12.772 30.6634 12.4831V11.3998L30.8801 9.44978C31.169 8.14978 31.8551 6.95811 32.9384 5.87478C34.0217 4.79145 35.3579 4.10534 36.9467 3.81645V6.19978C36.9467 6.922 37.1995 7.53589 37.7051 8.04145C38.2106 8.547 38.8245 8.79978 39.5467 8.79978H40.4134C41.1356 8.79978 41.7495 8.547 42.2551 8.04145C42.7606 7.53589 43.0134 6.922 43.0134 6.19978V3.81645C44.6023 4.10534 45.9745 4.82756 47.1301 5.98311C48.5745 7.42756 49.2967 9.23311 49.2967 11.3998V12.4831C49.2967 12.772 49.4051 13.0248 49.6217 13.2414C49.8384 13.4581 50.0912 13.5664 50.3801 13.5664H50.5967V13.9998H29.3634ZM32.1801 20.2831V16.1664H47.7801V20.4998C47.6356 21.5109 47.2384 22.4859 46.5884 23.4248C45.9384 24.3637 45.1801 25.1942 44.3134 25.9164L43.8801 26.3498C43.3023 26.6387 42.7245 26.8553 42.1467 26.9998C41.1356 27.1442 40.3773 27.2164 39.8717 27.2164C39.3662 27.2164 38.6801 27.1442 37.8134 26.9998C37.2356 26.8553 36.6579 26.6387 36.0801 26.3498L35.8634 26.1331C34.8523 25.4109 34.0217 24.5081 33.3717 23.4248C32.7217 22.3414 32.3245 21.2942 32.1801 20.2831ZM35.6467 30.8998C36.2245 30.7553 36.5134 30.322 36.5134 29.5998V28.5164L37.1634 28.7331C38.319 29.022 39.2217 29.1664 39.8717 29.1664C40.5217 29.1664 41.4245 29.022 42.5801 28.7331L43.4467 28.5164V29.5998C43.4467 30.322 43.7356 30.7553 44.3134 30.8998L45.8301 31.7664L41.4967 33.4998L37.1634 33.2831L34.1301 31.7664L35.6467 30.8998ZM17.2301 51.6998C16.9412 51.6998 16.7245 51.6276 16.5801 51.4831C16.4356 51.3387 16.4356 51.1942 16.5801 51.0498L17.0134 40.6498C17.0134 39.2053 17.5912 37.9053 18.7467 36.7498C19.3245 36.172 19.9745 35.6664 20.6967 35.2331L22.6467 34.5831V51.6998H17.2301ZM23.0801 32.4164L20.4801 33.4998L18.9634 34.1498V24.6164H25.4634V31.5498L23.0801 32.4164ZM24.3801 51.6998V33.9331L30.4467 31.7664L31.3134 35.2331C31.6023 36.6776 32.3245 37.7609 33.4801 38.4831L39.1134 41.9498V51.6998H24.3801ZM34.3467 36.9664C33.6245 36.5331 33.1912 35.8831 33.0467 35.0164L32.6134 32.8498C34.7801 34.5831 37.2356 35.4498 39.9801 35.4498C40.7023 35.4498 41.4245 35.3776 42.1467 35.2331C44.169 34.9442 45.9023 34.1498 47.3467 32.8498L46.9134 35.0164C46.769 35.8831 46.3356 36.5331 45.6134 36.9664L39.9801 40.4331L34.3467 36.9664ZM55.5801 51.6998H40.8467V41.9498L46.4801 38.4831C47.6356 37.7609 48.3579 36.6776 48.6467 35.2331L49.5134 31.7664L55.5801 33.9331V51.6998Z" fill="#FFBD59"/>
</svg>
