<svg width="66" height="66" viewBox="0 0 66 66" fill="none" xmlns="http://www.w3.org/2000/svg">
<g clip-path="url(#clip0_1_3493)">
<path d="M58.9432 43.6167L54.6099 42.75V41.2333C55.7655 40.5111 56.7044 39.5361 57.4266 38.3083C58.1488 37.0806 58.5099 35.7444 58.5099 34.3V28.6667C58.5099 26.5 57.7516 24.6583 56.2349 23.1417C54.7182 21.625 52.8766 20.8667 50.7099 20.8667H49.6266C47.3155 20.8667 45.3655 21.7333 43.7766 23.4667C43.0544 21.1556 41.7182 19.2417 39.7682 17.725C37.8182 16.2083 35.6155 15.45 33.1599 15.45C30.7044 15.45 28.5016 16.2083 26.5516 17.725C24.6016 19.2417 23.2655 21.1556 22.5432 23.4667C20.9544 21.7333 19.0044 20.8667 16.6932 20.8667H15.6099C13.4432 20.8667 11.6016 21.625 10.0849 23.1417C8.56825 24.6583 7.80991 26.5 7.80991 28.6667V34.3C7.80991 35.7444 8.17102 37.0806 8.89325 38.3083C9.61547 39.5361 10.5544 40.5111 11.7099 41.2333V42.75L7.37658 43.6167C5.35436 44.1944 3.72936 45.2778 2.50158 46.8667C1.2738 48.4556 0.659912 50.2611 0.659912 52.2833V56.1833C0.659912 56.4722 0.768245 56.7611 0.984912 57.05C1.20158 57.3389 1.52658 57.4833 1.95991 57.4833H12.1432V59V62.9H4.55991C4.12658 62.9 3.80158 63.0444 3.58491 63.3333C3.36825 63.6222 3.25991 63.9472 3.25991 64.3083C3.25991 64.6694 3.36825 64.9583 3.58491 65.175C3.80158 65.3917 4.12658 65.5 4.55991 65.5H61.7599C62.1932 65.5 62.5182 65.3917 62.7349 65.175C62.9516 64.9583 63.0599 64.6694 63.0599 64.3083C63.0599 63.9472 62.9516 63.6222 62.7349 63.3333C62.5182 63.0444 62.1932 62.9 61.7599 62.9H54.1766V59V57.4833H64.3599C64.7932 57.4833 65.1182 57.3389 65.3349 57.05C65.5516 56.7611 65.6599 56.4722 65.6599 56.1833V52.2833C65.6599 50.2611 65.046 48.4556 63.8182 46.8667C62.5905 45.2778 60.9655 44.1944 58.9432 43.6167ZM44.4266 28.6667C44.4266 27.2222 44.9321 25.9583 45.9432 24.875C46.9544 23.7917 48.1821 23.25 49.6266 23.25H50.7099C52.1544 23.25 53.3821 23.7917 54.3932 24.875C55.4044 25.9583 55.9099 27.2222 55.9099 28.6667V29.1C54.1766 29.1 52.5155 28.5944 50.9266 27.5833C50.4932 27.15 49.9877 27.15 49.4099 27.5833C47.821 28.5944 46.1599 29.1 44.4266 29.1V28.6667ZM44.4266 33.2167V31.7C46.4488 31.5556 48.3988 30.9778 50.2766 29.9667C52.0099 30.9778 53.8877 31.5556 55.9099 31.7V34.3C55.9099 35.8889 55.4044 37.1889 54.3932 38.2C53.3821 39.2111 52.1544 39.7167 50.7099 39.7167H49.6266C48.1821 39.7167 46.9544 39.2111 45.9432 38.2C44.9321 37.1889 44.4266 35.8889 44.4266 34.3V33.2167ZM46.8099 47.95C46.2321 47.6611 45.6544 47.5167 45.0766 47.5167L41.1766 46.4333L46.1599 45.1333L46.8099 47.95ZM45.7266 41.2333V42.75L41.3932 43.6167C40.5266 43.9056 39.6599 44.2667 38.7932 44.7V42.9667C40.671 41.8111 42.0432 40.3667 42.9099 38.6333C43.6321 39.6444 44.571 40.5111 45.7266 41.2333ZM41.8266 33.2167C41.8266 35.6722 40.9599 37.7306 39.2266 39.3917C37.4932 41.0528 35.471 41.8833 33.1599 41.8833C30.8488 41.8833 28.8266 41.0528 27.0932 39.3917C25.3599 37.7306 24.4932 35.6722 24.4932 33.2167V29.5333H26.0099C29.621 29.5333 32.871 28.45 35.7599 26.2833L35.9766 26.7167C36.5544 27.5833 37.3127 28.2694 38.2516 28.775C39.1905 29.2806 40.1655 29.5333 41.1766 29.5333H41.8266V33.2167ZM24.4932 26.7167C24.4932 24.2611 25.3599 22.2028 27.0932 20.5417C28.8266 18.8806 30.8488 18.05 33.1599 18.05C35.471 18.05 37.4932 18.8806 39.2266 20.5417C40.9599 22.2028 41.8266 24.2611 41.8266 26.7167V27.15H41.1766C39.8766 27.15 38.8655 26.5722 38.1432 25.4167L37.7099 24.7667L38.7932 23.4667C38.9377 23.1778 39.0099 22.8528 39.0099 22.4917C39.0099 22.1306 38.8655 21.8417 38.5766 21.625C38.2877 21.4083 37.9627 21.3361 37.6016 21.4083C37.2405 21.4806 36.9155 21.6611 36.6266 21.95C35.3266 23.5389 33.7377 24.8028 31.8599 25.7417C29.9821 26.6806 28.0321 27.15 26.0099 27.15H24.4932V26.7167ZM23.4099 38.6333C24.2766 40.3667 25.6488 41.8111 27.5266 42.9667V44.7C26.6599 44.2667 25.7932 43.9056 24.9266 43.6167L20.5932 42.75V41.2333C21.7488 40.5111 22.6877 39.6444 23.4099 38.6333ZM25.1432 46.4333L21.2432 47.5167L19.5099 47.95L20.1599 45.1333L25.1432 46.4333ZM10.4099 28.6667C10.4099 27.2222 10.9155 25.9583 11.9266 24.875C12.9377 23.7917 14.1655 23.25 15.6099 23.25H16.6932C18.1377 23.25 19.3655 23.7917 20.3766 24.875C21.3877 25.9583 21.8932 27.2222 21.8932 28.6667V29.1C20.1599 29.1 18.4988 28.5944 16.9099 27.5833C16.3321 27.15 15.8266 27.15 15.3932 27.5833C13.8044 28.5944 12.1432 29.1 10.4099 29.1V28.6667ZM10.4099 34.3V31.7C12.4321 31.5556 14.3099 30.9778 16.0432 29.9667C17.921 30.9778 19.871 31.5556 21.8932 31.7V34.3C21.8932 35.8889 21.3877 37.1889 20.3766 38.2C19.3655 39.2111 18.1377 39.7167 16.6932 39.7167H15.6099C14.1655 39.7167 12.9377 39.2111 11.9266 38.2C10.9155 37.1889 10.4099 35.8889 10.4099 34.3ZM12.7932 54.8833H3.25991V52.2833C3.25991 50.8389 3.69325 49.5389 4.55991 48.3833C5.42658 47.2278 6.58213 46.5056 8.02658 46.2167L12.1432 45.1333L13.8766 52.5C13.4432 53.2222 13.0821 54.0167 12.7932 54.8833ZM14.3099 42.1C14.7432 42.2444 15.1766 42.3167 15.6099 42.3167H16.6932C17.1266 42.3167 17.5599 42.2444 17.9932 42.1V43.4L16.4766 49.6833L15.8266 50.1167L14.3099 43.6167V42.1ZM14.5266 62.9V59C14.5266 57.4111 14.8877 55.9667 15.6099 54.6667C16.3321 53.3667 17.271 52.2833 18.4266 51.4167L30.1266 62.9H14.5266ZM20.8099 50.1167C21.0988 49.9722 21.3877 49.9 21.6766 49.9L27.7432 48.3833L30.7766 60.0833L20.8099 50.1167ZM29.9099 46.65V44.05C31.0655 44.3389 32.1849 44.4833 33.2682 44.4833C34.3516 44.4833 35.3988 44.3389 36.4099 44.05V46.65L33.1599 59.2167L29.9099 46.65ZM38.5766 48.3833L44.6432 49.9L45.5099 50.1167L35.5432 60.0833L38.5766 48.3833ZM51.7932 62.9H36.1932L47.8932 51.4167C49.0488 52.2833 49.9877 53.3667 50.7099 54.6667C51.4321 55.9667 51.7932 57.4111 51.7932 59V62.9ZM52.0099 43.6167L50.4932 50.1167L49.8432 49.6833L48.3266 43.4V42.1C48.7599 42.2444 49.1932 42.3167 49.6266 42.3167H50.7099C51.1432 42.3167 51.5766 42.2444 52.0099 42.1V43.6167ZM63.0599 54.8833H53.5266C53.2377 54.0167 52.8766 53.2222 52.4432 52.5L54.1766 45.1333L58.2932 46.2167C59.7377 46.5056 60.8932 47.2278 61.7599 48.3833C62.6266 49.5389 63.0599 50.8389 63.0599 52.2833V54.8833ZM33.1599 0.5C32.871 0.5 32.5821 0.60833 32.2932 0.824997C32.0044 1.04166 31.8599 1.36667 31.8599 1.8V7.21667C31.8599 7.50555 32.0044 7.79445 32.2932 8.08333C32.5821 8.37222 32.871 8.51667 33.1599 8.51667C33.4488 8.51667 33.7377 8.37222 34.0266 8.08333C34.3155 7.79445 34.4599 7.50555 34.4599 7.21667V1.8C34.4599 1.36667 34.3155 1.04166 34.0266 0.824997C33.7377 0.60833 33.4488 0.5 33.1599 0.5ZM34.0266 10.6833C33.7377 10.3944 33.4488 10.25 33.1599 10.25C32.871 10.25 32.5821 10.3944 32.2932 10.6833C32.0044 10.9722 31.8599 11.2972 31.8599 11.6583C31.8599 12.0194 32.0044 12.3083 32.2932 12.525C32.5821 12.7417 32.871 12.85 33.1599 12.85C33.4488 12.85 33.7377 12.7417 34.0266 12.525C34.3155 12.3083 34.4599 12.0194 34.4599 11.6583C34.4599 11.2972 34.3155 10.9722 34.0266 10.6833ZM24.7099 11.1167L19.9432 6.35C19.7988 6.06111 19.546 5.91667 19.1849 5.91667C18.8238 5.91667 18.4988 6.06111 18.2099 6.35C17.921 6.63889 17.7766 6.92778 17.7766 7.21667C17.7766 7.50555 17.921 7.79445 18.2099 8.08333L22.9766 12.85C23.121 13.1389 23.3738 13.2833 23.7349 13.2833C24.096 13.2833 24.421 13.1389 24.7099 12.85C24.9988 12.5611 25.1432 12.2361 25.1432 11.875C25.1432 11.5139 24.9988 11.2611 24.7099 11.1167ZM48.3266 6.13333C48.0377 5.84444 47.7127 5.7 47.3516 5.7C46.9905 5.7 46.7377 5.84444 46.5932 6.13333L41.6099 11.1167C41.321 11.4056 41.1766 11.6944 41.1766 11.9833C41.1766 12.2722 41.2849 12.5611 41.5016 12.85C41.7182 13.1389 42.0071 13.2833 42.3682 13.2833C42.7294 13.2833 43.0544 13.1389 43.3432 12.85L48.3266 7.86666C48.6155 7.57778 48.7599 7.28889 48.7599 7C48.7599 6.71111 48.6155 6.42222 48.3266 6.13333Z" fill="#FFBD59"/>
</g>
<defs>
<clipPath id="clip0_1_3493">
<rect width="65" height="65" fill="white" transform="matrix(1 0 0 -1 0.659912 65.5)"/>
</clipPath>
</defs>
</svg>
