<svg width="60" height="60" viewBox="0 0 60 60" fill="none" xmlns="http://www.w3.org/2000/svg">
<path d="M49.6645 0.000111383C49.3198 0.00407649 49.2595 0.0777508 49.2537 0.0845298C49.2477 0.0914368 49.1832 0.161913 49.2284 0.50432C49.2736 0.846726 49.4531 1.38112 49.7845 1.99149C50.4471 3.21223 51.6893 4.73727 53.3066 6.14091C54.9238 7.54469 56.6074 8.55899 57.9078 9.0421C58.558 9.28358 59.1117 9.38527 59.4563 9.3813C59.801 9.37734 59.8614 9.30379 59.8674 9.29689C59.8733 9.28998 59.9375 9.21963 59.8923 8.87722C59.8471 8.53482 59.6676 8.00042 59.3362 7.39005C58.6737 6.16931 57.4314 4.64428 55.8141 3.2405C54.1969 1.83685 52.5131 0.822552 51.2126 0.339448C50.5624 0.0978321 50.0093 -0.00385373 49.6645 0.000111383ZM30.002 4.83089C13.4334 4.83089 0.00195312 18.2883 0.00195312 34.889C0.00195312 42.9406 3.16153 50.2526 8.30621 55.6486C-3.3486 61.8861 21.4696 59.4471 30.002 59.4471C38.5124 59.4471 62.3619 62.921 55.3957 52.4534C59.0836 45.9465 60.002 42.9627 60.002 34.889C60.002 26.5964 56.6501 19.0884 51.2301 13.6502L42.1511 19.0435L46.085 9.5119C41.4367 6.54843 35.9197 4.83089 30.002 4.83089ZM49.9191 6.24682L46.9089 13.5406L53.6848 9.51522L51.8031 7.88211L51.8021 7.88122L51.8011 7.88019L49.9191 6.24682ZM30.002 15.3192C40.7755 15.3192 49.5339 24.0945 49.5339 34.889C49.5339 45.6834 40.7755 54.4587 30.002 54.4587C19.2284 54.4587 10.47 45.6834 10.47 34.889C10.47 24.0945 19.2284 15.3192 30.002 15.3192ZM30.002 17.6216C27.3955 17.6216 24.9266 18.1997 22.7139 19.2335C24.188 23.439 26.7106 28.7495 30.002 28.7495C33.2985 28.7495 35.7372 23.4221 37.2469 19.2134C35.0451 18.1923 32.5914 17.6216 30.002 17.6216ZM42.6086 23.1062C39.0706 25.8105 34.8032 29.8584 35.8209 32.9969C36.8398 36.1388 42.6517 36.8159 47.1136 36.9538C47.1937 36.2766 47.236 35.588 47.236 34.889C47.236 30.3301 45.48 26.1898 42.6086 23.1062ZM17.3666 23.1373C14.5121 26.2174 12.7679 30.3454 12.7679 34.889C12.7679 35.5989 12.8113 36.2983 12.894 36.9854C17.3408 36.8799 23.1554 36.1165 24.172 32.9819C25.19 29.8428 20.8937 25.8763 17.3666 23.1373ZM26.3268 28.7195C26.1178 28.7255 25.9144 28.7885 25.7385 28.9018C25.5626 29.015 25.4208 29.1742 25.3286 29.3622C25.2363 29.5502 25.197 29.7598 25.2149 29.9686C25.2327 30.1773 25.3071 30.3772 25.43 30.5467C25.5463 30.7072 25.7021 30.8348 25.8821 30.9173C26.0622 30.9997 26.2605 31.0341 26.4578 31.0172C26.655 31.0002 26.8446 30.9325 27.008 30.8205C27.1714 30.7086 27.3032 30.5562 27.3906 30.3782C27.478 30.2002 27.5179 30.0026 27.5067 29.8046C27.4954 29.6065 27.4332 29.4148 27.3262 29.2479C27.2191 29.081 27.0709 28.9447 26.8958 28.8521C26.7207 28.7595 26.5247 28.7139 26.3268 28.7195ZM33.6771 28.7195C33.4792 28.7139 33.2832 28.7595 33.1081 28.8521C32.933 28.9447 32.7848 29.081 32.6777 29.2479C32.5707 29.4148 32.5085 29.6065 32.4972 29.8046C32.486 30.0026 32.5259 30.2002 32.6133 30.3782C32.7007 30.5562 32.8325 30.7086 32.9959 30.8205C33.1594 30.9325 33.3489 31.0002 33.5462 31.0172C33.7434 31.0341 33.9417 30.9997 34.1218 30.9173C34.3018 30.8348 34.4576 30.7072 34.574 30.5467C34.6968 30.3772 34.7712 30.1773 34.7891 29.9686C34.8069 29.7598 34.7676 29.5502 34.6753 29.3622C34.5831 29.1742 34.4413 29.015 34.2654 28.9018C34.0895 28.7885 33.8861 28.7255 33.6771 28.7195ZM30.002 30.796C27.7458 30.796 25.9168 32.6285 25.9168 34.889C25.9168 37.1495 27.7458 38.982 30.002 38.982C32.2581 38.982 34.0871 37.1495 34.0871 34.889C34.0871 32.6285 32.2581 30.796 30.002 30.796ZM24.0917 35.6612C23.9118 35.6637 23.7349 35.7086 23.5755 35.7921C23.416 35.8757 23.2784 35.9956 23.1737 36.1422C23.0689 36.2888 23 36.458 22.9725 36.6362C22.945 36.8144 22.9597 36.9966 23.0153 37.168C23.1094 37.4584 23.3149 37.6993 23.5863 37.8379C23.8578 37.9765 24.1731 38.0014 24.4629 37.9071C24.7245 37.822 24.9469 37.6457 25.0897 37.4103C25.2326 37.1749 25.2865 36.8959 25.2415 36.6241C25.1966 36.3523 25.0559 36.1056 24.8449 35.9289C24.6339 35.7523 24.3667 35.6572 24.0917 35.6612ZM35.8497 35.6619C35.5628 35.6734 35.2906 35.7921 35.0867 35.9947C34.8828 36.1972 34.762 36.4689 34.748 36.7562C34.734 37.0436 34.828 37.3257 35.0113 37.5471C35.1946 37.7685 35.454 37.9132 35.7384 37.9525C36.0228 37.9919 36.3117 37.9231 36.548 37.7597C36.7843 37.5964 36.9511 37.3503 37.0153 37.0699C37.0796 36.7895 37.0368 36.4952 36.8953 36.2449C36.7538 35.9946 36.5239 35.8064 36.2509 35.7174C36.1215 35.6753 35.9856 35.6565 35.8497 35.6619ZM24.1827 39.2069C21.4265 39.2202 17.7691 41.3598 14.9371 43.2907C17.3663 47.661 21.6341 50.8581 26.7 51.8396C27.9754 47.5688 29.0515 41.7838 26.3878 39.8449C25.7681 39.3937 25.0171 39.2028 24.1827 39.2069ZM35.8018 39.2094C34.9618 39.2094 34.2071 39.4033 33.5874 39.8543C30.92 41.7961 32.073 47.5423 33.3208 51.8364C38.3873 50.8496 42.6538 47.6461 45.0783 43.2701C42.269 41.3228 38.576 39.2094 35.8018 39.2093V39.2094ZM30.002 39.9515C29.6972 39.9515 29.405 40.0728 29.1895 40.2887C28.9741 40.5046 28.853 40.7974 28.853 41.1027C28.853 41.408 28.9741 41.7008 29.1895 41.9167C29.405 42.1326 29.6972 42.2539 30.002 42.2539C30.3067 42.2539 30.5989 42.1326 30.8144 41.9167C31.0298 41.7008 31.1509 41.408 31.1509 41.1027C31.1509 40.7974 31.0298 40.5046 30.8144 40.2887C30.5989 40.0728 30.3067 39.9515 30.002 39.9515Z" fill="#FFBD59"/>
</svg>
