<svg width="60" height="55" viewBox="0 0 60 55" fill="none" xmlns="http://www.w3.org/2000/svg">
<path d="M0 44.6875V30.9375H22.3636L5.45455 14.0938V24.0625H0V3.4375H2.72727L32.7273 24.2344V0H46.3636L60 20.625V44.6875H53.1818C53.1818 47.5521 52.3864 49.987 50.7955 51.9922C49.2045 53.9974 47.2727 55 45 55C42.7273 55 40.7955 53.9974 39.2045 51.9922C37.6136 49.987 36.8182 47.5521 36.8182 44.6875H21.8182C21.8182 47.5521 21.0227 49.987 19.4318 51.9922C17.8409 53.9974 15.9091 55 13.6364 55C11.3636 55 9.43182 53.9974 7.84091 51.9922C6.25 49.987 5.45455 47.5521 5.45455 44.6875H0ZM13.6364 49.8438C14.8182 49.8438 15.7955 49.3568 16.5682 48.3828C17.3409 47.4089 17.7273 46.1771 17.7273 44.6875C17.7273 43.1979 17.3409 41.9661 16.5682 40.9922C15.7955 40.0182 14.8182 39.5312 13.6364 39.5312C12.4545 39.5312 11.4773 40.0182 10.7045 40.9922C9.93182 41.9661 9.54545 43.1979 9.54545 44.6875C9.54545 46.1771 9.93182 47.4089 10.7045 48.3828C11.4773 49.3568 12.4545 49.8438 13.6364 49.8438ZM45 49.8438C46.1818 49.8438 47.1591 49.3568 47.9318 48.3828C48.7045 47.4089 49.0909 46.1771 49.0909 44.6875C49.0909 43.1979 48.7045 41.9661 47.9318 40.9922C47.1591 40.0182 46.1818 39.5312 45 39.5312C43.8182 39.5312 42.8409 40.0182 42.0682 40.9922C41.2955 41.9661 40.9091 43.1979 40.9091 44.6875C40.9091 46.1771 41.2955 47.4089 42.0682 48.3828C42.8409 49.3568 43.8182 49.8438 45 49.8438ZM38.1818 20.625H52.9091L43.7727 6.875H38.1818V20.625Z" fill="#FFBD59"/>
</svg>
