<svg width="60" height="60" viewBox="0 0 60 60" fill="none" xmlns="http://www.w3.org/2000/svg">
<path d="M24 58.05V40.95L28.2 28.95C28.45 28.4 28.813 27.938 29.289 27.564C29.765 27.19 30.352 27.002 31.05 27H52.95C53.65 27 54.238 27.188 54.714 27.564C55.19 27.94 55.552 28.402 55.8 28.95L60 40.95V58.05C60 58.6 59.813 59.063 59.439 59.439C59.065 59.815 58.602 60.002 58.05 60H55.95C55.4 60 54.938 59.813 54.564 59.439C54.19 59.065 54.002 58.602 54 58.05V55.5H30V58.05C30 58.6 29.813 59.063 29.439 59.439C29.065 59.815 28.602 60.002 28.05 60H25.95C25.4 60 24.938 59.813 24.564 59.439C24.19 59.065 24.002 58.602 24 58.05ZM30 37.5H54L51.9 31.5H32.1L30 37.5ZM33 49.5C33.85 49.5 34.563 49.212 35.139 48.636C35.715 48.06 36.002 47.348 36 46.5C35.998 45.652 35.71 44.94 35.136 44.364C34.562 43.788 33.85 43.5 33 43.5C32.15 43.5 31.438 43.788 30.864 44.364C30.29 44.94 30.002 45.652 30 46.5C29.998 47.348 30.286 48.061 30.864 48.639C31.442 49.217 32.154 49.504 33 49.5ZM51 49.5C51.85 49.5 52.563 49.212 53.139 48.636C53.715 48.06 54.002 47.348 54 46.5C53.998 45.652 53.71 44.94 53.136 44.364C52.562 43.788 51.85 43.5 51 43.5C50.15 43.5 49.438 43.788 48.864 44.364C48.29 44.94 48.002 45.652 48 46.5C47.998 47.348 48.286 48.061 48.864 48.639C49.442 49.217 50.154 49.504 51 49.5ZM12 36V30H18V36H12ZM27 18V12H33V18H27ZM12 48V42H18V48H12ZM12 60V54H18V60H12ZM0 60V18H15V0H45V21H39V6H21V24H6V60H0Z" fill="#FFBD59"/>
</svg>
