<svg width="175" height="175" viewBox="0 0 175 175" fill="none" xmlns="http://www.w3.org/2000/svg">
<g clip-path="url(#clip0_117_276)">
<path d="M175 142.188V153.125H153.125V175H142.188V153.125H120.312V142.188H142.188V120.312H153.125V142.188H175ZM88.8672 80.835C94.279 82.8857 99.3062 85.5916 103.949 88.9526C108.592 92.3136 112.708 96.1731 116.296 100.531C119.885 104.889 122.876 109.674 125.269 114.886C127.661 120.099 129.342 125.553 130.31 131.25H119.202C117.891 124.87 115.584 119.002 112.28 113.647C108.976 108.293 104.946 103.678 100.189 99.8047C95.4325 95.931 90.1062 92.9118 84.2102 90.7471C78.3142 88.5824 72.1191 87.5 65.625 87.5C60.612 87.5 55.7699 88.1551 51.0986 89.4653C46.4274 90.7756 42.0695 92.6127 38.0249 94.9768C33.9803 97.3409 30.2917 100.189 26.9592 103.522C23.6267 106.854 20.7784 110.543 18.4143 114.587C16.0502 118.632 14.2131 122.99 12.9028 127.661C11.5926 132.332 10.9375 137.174 10.9375 142.188H0C0 135.352 1.01115 128.772 3.03345 122.449C5.05575 116.125 7.91829 110.286 11.6211 104.932C15.3239 99.5768 19.7815 94.8202 24.9939 90.6616C30.2063 86.5031 36.0026 83.2275 42.3828 80.835C35.9456 76.6195 30.9184 71.3216 27.301 64.9414C23.6837 58.5612 21.875 51.4974 21.875 43.75C21.875 37.7116 23.0143 32.0292 25.293 26.7029C27.5716 21.3765 30.6905 16.7338 34.6497 12.7747C38.6088 8.81551 43.2515 5.69661 48.5779 3.41797C53.9042 1.13932 59.5866 0 65.625 0C71.6634 0 77.3458 1.13932 82.6721 3.41797C87.9985 5.69661 92.6412 8.81551 96.6003 12.7747C100.559 16.7338 103.678 21.3765 105.957 26.7029C108.236 32.0292 109.375 37.7116 109.375 43.75C109.375 47.5098 108.905 51.1841 107.965 54.7729C107.025 58.3618 105.672 61.7513 103.906 64.9414C102.14 68.1315 99.9898 71.0795 97.4548 73.7854C94.9198 76.4913 92.0573 78.8411 88.8672 80.835ZM32.8125 43.75C32.8125 48.3073 33.667 52.5655 35.376 56.5247C37.085 60.4838 39.4348 63.9587 42.4255 66.9495C45.4163 69.9402 48.8912 72.29 52.8503 73.999C56.8095 75.708 61.0677 76.5625 65.625 76.5625C70.1253 76.5625 74.3693 75.708 78.3569 73.999C82.3446 72.29 85.8337 69.9402 88.8245 66.9495C91.8152 63.9587 94.165 60.4838 95.874 56.5247C97.583 52.5655 98.4375 48.3073 98.4375 43.75C98.4375 39.2497 97.583 35.0057 95.874 31.0181C94.165 27.0304 91.8152 23.5413 88.8245 20.5505C85.8337 17.5598 82.3446 15.21 78.3569 13.501C74.3693 11.792 70.1253 10.9375 65.625 10.9375C61.0677 10.9375 56.8095 11.792 52.8503 13.501C48.8912 15.21 45.4163 17.5598 42.4255 20.5505C39.4348 23.5413 37.085 27.0304 35.376 31.0181C33.667 35.0057 32.8125 39.2497 32.8125 43.75Z" fill="#FFBD59"/>
</g>
<defs>
<clipPath id="clip0_117_276">
<rect width="175" height="175" fill="white"/>
</clipPath>
</defs>
</svg>
