<svg width="175" height="175" viewBox="0 0 175 175" fill="none" xmlns="http://www.w3.org/2000/svg">
<path d="M112.5 75H162.5C165.814 74.9967 168.992 73.6787 171.335 71.3352C173.679 68.9917 174.997 65.8142 175 62.5V12.5C174.997 9.18581 173.679 6.00831 171.335 3.66482C168.992 1.32133 165.814 0.00330923 162.5 0H112.5C109.186 0.00330923 106.008 1.32133 103.665 3.66482C101.321 6.00831 100.003 9.18581 100 12.5H43.75C40.4358 12.5033 37.2583 13.8213 34.9148 16.1648C32.5713 18.5083 31.2533 21.6858 31.25 25V50H12.5C9.18581 50.0033 6.00831 51.3213 3.66482 53.6648C1.32133 56.0083 0.00330923 59.1858 0 62.5V112.5C0.00330923 115.814 1.32133 118.992 3.66482 121.335C6.00831 123.679 9.18581 124.997 12.5 125H25V150C25.0033 153.314 26.3213 156.492 28.6648 158.835C31.0083 161.179 34.1858 162.497 37.5 162.5H100C100.003 165.814 101.321 168.992 103.665 171.335C106.008 173.679 109.186 174.997 112.5 175H162.5C165.814 174.997 168.992 173.679 171.335 171.335C173.679 168.992 174.997 165.814 175 162.5V112.5C174.997 109.186 173.679 106.008 171.335 103.665C168.992 101.321 165.814 100.003 162.5 100H112.5C109.186 100.003 106.008 101.321 103.665 103.665C101.321 106.008 100.003 109.186 100 112.5V150H37.5V125H62.5C65.8142 124.997 68.9917 123.679 71.3352 121.335C73.6787 118.992 74.9967 115.814 75 112.5V62.5C74.9967 59.1858 73.6787 56.0083 71.3352 53.6648C68.9917 51.3213 65.8142 50.0033 62.5 50H43.75V25H100V62.5C100.003 65.8142 101.321 68.9917 103.665 71.3352C106.008 73.6787 109.186 74.9967 112.5 75ZM112.5 162.5V137.5H162.5V162.5H112.5ZM162.5 112.5V125H112.5V112.5H162.5ZM12.5 112.5V87.5H62.5V112.5H12.5ZM62.5 75H12.5V62.5H62.5V75ZM112.5 62.5V37.5H162.5V62.5H112.5ZM162.5 12.5V25H112.5V12.5H162.5Z" fill="#FFBD59"/>
</svg>
