<svg width="18" height="13" viewBox="0 0 18 13" fill="none" xmlns="http://www.w3.org/2000/svg">
<g clip-path="url(#clip0_1_1868)">
<g clip-path="url(#clip1_1_1868)">
<g clip-path="url(#clip2_1_1868)">
<path d="M16.5 5.54993H11.5C10.9477 5.54993 10.5 5.99764 10.5 6.54993C10.5 7.10221 10.9477 7.54993 11.5 7.54993H16.5C17.0523 7.54993 17.5 7.10221 17.5 6.54993C17.5 5.99764 17.0523 5.54993 16.5 5.54993Z" fill="#FFBD59"/>
<path d="M6.5 11.5499C9.26142 11.5499 11.5 9.31135 11.5 6.54993C11.5 3.7885 9.26142 1.54993 6.5 1.54993C3.73858 1.54993 1.5 3.7885 1.5 6.54993C1.5 9.31135 3.73858 11.5499 6.5 11.5499Z" stroke="#FFBD59" stroke-width="2"/>
</g>
</g>
</g>
<defs>
<clipPath id="clip0_1_1868">
<rect width="17" height="12" fill="white" transform="translate(0.5 0.549927)"/>
</clipPath>
<clipPath id="clip1_1_1868">
<rect width="17" height="12" fill="white" transform="translate(0.5 0.549927)"/>
</clipPath>
<clipPath id="clip2_1_1868">
<rect width="17" height="12" fill="white" transform="translate(0.5 0.549927)"/>
</clipPath>
</defs>
</svg>
