<svg width="16" height="18" viewBox="0 0 16 18" fill="none" xmlns="http://www.w3.org/2000/svg">
<path d="M6.33464 7.12496C6.79487 7.12496 7.16797 7.49806 7.16797 7.95829V12.9583C7.16797 13.4185 6.79487 13.7916 6.33464 13.7916C5.8744 13.7916 5.5013 13.4185 5.5013 12.9583V7.95829C5.5013 7.49806 5.8744 7.12496 6.33464 7.12496Z" fill="#667085"/>
<path d="M10.5013 7.95829C10.5013 7.49806 10.1282 7.12496 9.66797 7.12496C9.20773 7.12496 8.83464 7.49806 8.83464 7.95829V12.9583C8.83464 13.4185 9.20773 13.7916 9.66797 13.7916C10.1282 13.7916 10.5013 13.4185 10.5013 12.9583V7.95829Z" fill="#667085"/>
<path fill-rule="evenodd" clip-rule="evenodd" d="M13.0013 3.99996V3.16663C13.0013 1.78591 11.882 0.666626 10.5013 0.666626H5.5013C4.12059 0.666626 3.0013 1.78591 3.0013 3.16663V3.99996H1.7513C1.29106 3.99996 0.917969 4.37306 0.917969 4.83329C0.917969 5.29353 1.29106 5.66663 1.7513 5.66663H2.16797V14.8333C2.16797 16.214 3.28726 17.3333 4.66797 17.3333H11.3346C12.7153 17.3333 13.8346 16.214 13.8346 14.8333V5.66663H14.2513C14.7115 5.66663 15.0846 5.29353 15.0846 4.83329C15.0846 4.37306 14.7115 3.99996 14.2513 3.99996H13.0013ZM10.5013 2.33329H5.5013C5.04107 2.33329 4.66797 2.70639 4.66797 3.16663V3.99996H11.3346V3.16663C11.3346 2.70639 10.9615 2.33329 10.5013 2.33329ZM12.168 5.66663H3.83464V14.8333C3.83464 15.2935 4.20773 15.6666 4.66797 15.6666H11.3346C11.7949 15.6666 12.168 15.2935 12.168 14.8333V5.66663Z" fill="#667085"/>
</svg>
